<?xml version="1.0" encoding="UTF-8"?>
<svg xmlns="http://www.w3.org/2000/svg" xmlns:xlink="http://www.w3.org/1999/xlink" width="500" zoomAndPan="magnify" viewBox="0 0 375 374.999991" height="500" preserveAspectRatio="xMidYMid meet" version="1.0" style="background: transparent;"><defs><clipPath id="13e1447cef"><path d="M 9.375 74.09375 L 365.625 74.09375 L 365.625 300.59375 L 9.375 300.59375 Z M 9.375 74.09375 " clip-rule="nonzero"/></clipPath></defs><path fill="#00ff51" d="M 10.886719 188.554688 L 186.472656 299.34375 L 364.113281 186.496094 L 186.472656 75.707031 Z M 10.886719 188.554688 " fill-opacity="1" fill-rule="nonzero"/><g clip-path="url(#13e1447cef)"><path fill="#070404" d="M 186.472656 300.855469 C 186.171875 300.855469 185.929688 300.796875 185.6875 300.613281 L 10.101562 189.882812 C 9.675781 189.582031 9.375 189.15625 9.375 188.613281 C 9.375 188.070312 9.617188 187.585938 10.039062 187.34375 L 185.625 74.4375 C 186.109375 74.132812 186.773438 74.132812 187.257812 74.4375 L 364.898438 185.226562 C 365.324219 185.53125 365.625 186.015625 365.625 186.496094 C 365.625 187.042969 365.382812 187.523438 364.898438 187.765625 L 187.257812 300.613281 C 187.015625 300.796875 186.773438 300.855469 186.472656 300.855469 Z M 13.726562 188.554688 L 186.472656 297.53125 L 361.273438 186.4375 L 186.472656 77.519531 Z M 13.726562 188.554688 " fill-opacity="1" fill-rule="nonzero"/></g></svg>